<svg xmlns="http://www.w3.org/2000/svg" viewBox="0 0 515.14 190.55"><defs><style>.cls-1{fill:#fb7d64;}</style></defs><title>dagdag</title><g id="Layer_2" data-name="Layer 2"><g id="Layer_1-2" data-name="Layer 1"><path class="cls-1" d="M248.48,74.5a17.07,17.07,0,0,1,13,5.55V50.94H273.6v68.15H261.92v-4.87a17.07,17.07,0,0,1-13.34,5.94c-12.07,0-20.84-10-20.84-22.78S236.51,74.5,248.48,74.5Zm2.24,35.05c6.23,0,10.91-4.77,10.91-12.17S257,85.21,250.72,85.21c-5.94,0-10.51,4.77-10.51,12.17S244.78,109.55,250.72,109.55Z"/><path class="cls-1" d="M291.42,89.2H279.73c.49-7.69,7.11-14.7,19.77-14.7,13.72,0,19.86,7.79,19.86,17.13v27.46H307.48v-4.77c-2.63,3.11-7.59,5.64-14.41,5.64-7.5,0-15.58-3.69-15.58-13.14,0-8.18,6.33-12.75,17-12.75h13V92.9c0-5.06-2.43-8.18-8.37-8.18C294,84.72,292,86.86,291.42,89.2Zm16.06,13.24v-.19h-10.9c-5.16,0-7.21,1.46-7.21,4.18,0,3,2.82,4.19,7,4.19C303.1,110.62,307.48,108.09,307.48,102.44Z"/><path class="cls-1" d="M357.72,113a17.12,17.12,0,0,1-13.54,6c-12,0-20.73-10-20.73-22.2s8.76-22.29,20.73-22.29a17.37,17.37,0,0,1,13.44,6V75.67H369.3V118.5c0,12.76-8.66,21.33-22.49,21.33-14,0-21-8.18-21.81-16.26h11.88c.49,3.6,3.41,5.94,9.74,5.94,7.69,0,11.1-3.51,11.1-12.08ZM346.33,85.11c-5.94,0-10.62,5-10.62,11.68s4.68,11.69,10.62,11.69c6.23,0,11-5,11-11.69S352.56,85.11,346.33,85.11Z"/><path class="cls-1" d="M394.32,74.5a17.07,17.07,0,0,1,13.05,5.55V50.94h12.07v68.15H407.76v-4.87a17.06,17.06,0,0,1-13.34,5.94c-12.07,0-20.84-10-20.84-22.78S382.35,74.5,394.32,74.5Zm2.24,35.05c6.23,0,10.91-4.77,10.91-12.17s-4.68-12.17-10.91-12.17c-5.94,0-10.51,4.77-10.51,12.17S390.62,109.55,396.56,109.55Z"/><path class="cls-1" d="M437.26,89.2H425.57c.49-7.69,7.11-14.7,19.77-14.7,13.72,0,19.86,7.79,19.86,17.13v27.46H453.32v-4.77c-2.63,3.11-7.59,5.64-14.41,5.64-7.49,0-15.58-3.69-15.58-13.14,0-8.18,6.33-12.75,17-12.75h12.95V92.9c0-5.06-2.43-8.18-8.37-8.18C439.79,84.72,437.84,86.86,437.26,89.2Zm16.06,13.24v-.19h-10.9c-5.16,0-7.21,1.46-7.21,4.18,0,3,2.83,4.19,7,4.19C448.94,110.62,453.32,108.09,453.32,102.44Z"/><path class="cls-1" d="M503.56,113A17.12,17.12,0,0,1,490,119c-12,0-20.73-10-20.73-22.2S478.05,74.5,490,74.5a17.37,17.37,0,0,1,13.44,6V75.67h11.68V118.5c0,12.76-8.66,21.33-22.49,21.33-14,0-21-8.18-21.8-16.26h11.87c.49,3.6,3.41,5.94,9.74,5.94,7.69,0,11.1-3.51,11.1-12.08ZM492.17,85.11c-5.94,0-10.61,5-10.61,11.68s4.67,11.69,10.61,11.69c6.23,0,11-5,11-11.69S498.4,85.11,492.17,85.11Z"/><path class="cls-1" d="M95.28,178.8A83.52,83.52,0,0,1,13.94,76.28H63.43a18.42,18.42,0,0,1,0,36.84H49.15V83.29H37.39v41.58h26a30.18,30.18,0,1,0,0-60.35H5.09A95.28,95.28,0,0,0,183.2,132H170.3A83.63,83.63,0,0,1,95.28,178.8Z"/><path class="cls-1" d="M95.28,0A95.41,95.41,0,0,0,7.76,57.64h13a83.51,83.51,0,0,1,156.11,55.6H113.29v-37h14.28a18.43,18.43,0,0,1,17,25.6,18.09,18.09,0,0,1-2.09,3.68c-.2.27-.42.53-.64.79h13.6a30.18,30.18,0,0,0-27.84-41.83h-26v60.55h84.25A95.3,95.3,0,0,0,95.28,0Z"/></g></g></svg>