<svg xmlns="http://www.w3.org/2000/svg" viewBox="0 0 190.55 190.55"><defs><style>.cls-1{fill:#fb7d64;}</style></defs><title>dagdag icon</title><g id="Layer_2" data-name="Layer 2"><g id="Layer_1-2" data-name="Layer 1"><path class="cls-1" d="M95.28,178.8A83.52,83.52,0,0,1,13.94,76.28H63.43a18.42,18.42,0,0,1,0,36.84H49.15V83.29H37.39v41.58h26a30.18,30.18,0,1,0,0-60.35H5.09A95.28,95.28,0,0,0,183.2,132H170.3A83.63,83.63,0,0,1,95.28,178.8Z"/><path class="cls-1" d="M95.28,0A95.41,95.41,0,0,0,7.76,57.64h13a83.51,83.51,0,0,1,156.11,55.6H113.29v-37h14.28a18.43,18.43,0,0,1,17,25.6,18.09,18.09,0,0,1-2.09,3.68c-.2.27-.42.53-.64.79h13.6a30.18,30.18,0,0,0-27.84-41.83h-26v60.55h84.25A95.3,95.3,0,0,0,95.28,0Z"/></g></g></svg>