<svg xmlns="http://www.w3.org/2000/svg" width="2378.715" height="1853.028" viewBox="0 0 2378.715 1853.028">
  <g id="Group_381" data-name="Group 381" transform="translate(-9152 -8182.698)">
    <path id="Path_39" data-name="Path 39" d="M1516.082,612.062a850.032,850.032,0,0,1,222.48-204.982,896.231,896.231,0,0,1,125.232-60.165c36.38-13.992,44.776-6.3,34.981,32.881A789.14,789.14,0,0,1,1670,772.269a849.346,849.346,0,0,1-258.161,167.2c-31.483,13.292-38.479,9.794-42.677-25.885a804.528,804.528,0,0,1,419.773-807.333,126.633,126.633,0,0,0,25.886-16.791A710.116,710.116,0,0,0,1234.134,493.83c-18.19-26.585-33.582-48.972-49.673-69.96A993.473,993.473,0,0,0,419.773,2.014,1027.779,1027.779,0,0,0,30.084,58.682C0,67.776,0,83.867,0,109.053,57.442,513.2,361.193,838.459,760.49,923.382a2396.2,2396.2,0,0,0,247.666,33.581c41.278,4.9,45.475,0,39.878-43.375a619.13,619.13,0,0,0-88.152-248.357A699.611,699.611,0,0,0,652.048,380.5a489.748,489.748,0,0,0-80.456-25.885A746.469,746.469,0,0,1,845.144,743.586a435.866,435.866,0,0,1-48.274-7A769.585,769.585,0,0,1,349.811,433.665,1539.123,1539.123,0,0,1,244.168,251.071c-18.89-35.68-13.293-42.676,27.985-46.873A782.2,782.2,0,0,1,780.779,314.734a805.236,805.236,0,0,1,375,523.3,787.719,787.719,0,0,1-69.962,543.586c-3.5,7-5.6,13.992-11.194,25.885a165.118,165.118,0,0,0,44.776,5.6,254.666,254.666,0,0,0,200.792-107.738,419.739,419.739,0,0,0,39.179-114.734,45.475,45.475,0,0,1,32.882-35.679c391.789-118.232,621.964-384.078,705.219-780.749a1871.386,1871.386,0,0,0,25.186-209.879c0-31.482,0-35.679-34.981-32.181a687.737,687.737,0,0,0-436.564,231.566,519.093,519.093,0,0,0-135.027,248.357Z" transform="translate(9152 8181.885)" fill="#7ac142"/>
    <path id="Path_40" data-name="Path 40" d="M1253.324,289.744C585.884-81.741,1,34.392,1,34.392A1418.851,1418.851,0,0,1,864.334,482.833Z" transform="translate(9220.963 9312.235)" fill="#00853e"/>
    <path id="Path_41" data-name="Path 41" d="M10.73,585.813s438.663-3.5,567.394,136.421A1508.391,1508.391,0,0,1,1638.752,54.12S816-192.837,10.73,585.813Z" transform="translate(9891.963 9292.506)" fill="#5d872b"/>
    <path id="Path_42" data-name="Path 42" d="M10.45,562.877s473.644,21.687,603.774,160.907A1446.122,1446.122,0,0,1,1658.06,34.682S818.514-131.821,10.45,562.877Z" transform="translate(9872.654 9311.942)" fill="#7ac142"/>
  </g>
</svg>
